<!DOCTYPE svg PUBLIC "-//W3C//DTD SVG 1.1//EN" "http://www.w3.org/Graphics/SVG/1.1/DTD/svg11.dtd">
<!-- Uploaded to: SVG Repo, www.svgrepo.com, Transformed by: SVG Repo Mixer Tools -->
<svg height="800px" width="800px" version="1.1" id="Layer_1" xmlns="http://www.w3.org/2000/svg" xmlns:xlink="http://www.w3.org/1999/xlink" viewBox="0 0 512 512" xml:space="preserve" fill="#000000">
<g id="SVGRepo_bgCarrier" stroke-width="0"/>
<g id="SVGRepo_tracerCarrier" stroke-linecap="round" stroke-linejoin="round"/>
<g id="SVGRepo_iconCarrier"> <g transform="translate(1 1)"> <path style="fill:#F97316 ;" d="M295.465,24.6v-8.533c0-5.12-3.413-8.533-7.68-8.533H178.558c-4.267,0-7.68,3.413-7.68,8.533V24.6 H60.798c-8.533,0-15.36,7.68-15.36,17.067V485.4c0,9.387,6.827,17.067,15.36,17.067h308.907c8.533,0,51.2-41.813,51.2-51.2v-409.6 c0-9.387-6.827-17.067-15.36-17.067H295.465z"/> <path style="fill:#FFA800;" d="M420.905,24.6h-15.36c8.533,0,15.36,7.68,15.36,17.067v375.467c0,9.387-6.827,17.067-15.36,17.067 h15.36c9.387,0,17.067-7.68,17.067-17.067V41.667C437.972,32.28,430.292,24.6,420.905,24.6"/> <path style="fill:#FFFFFF;" d="M45.438,485.4V41.667c0-9.387,6.827-17.067,15.36-17.067h-15.36c-9.387,0-17.067,7.68-17.067,17.067 V485.4c0,9.387,7.68,17.067,17.067,17.067h15.36C52.265,502.467,45.438,494.787,45.438,485.4"/> <path style="fill:#FFA800;" d="M292.905,75.8H173.438c-5.12,0-8.533-3.413-8.533-8.533v-51.2c0-5.12,3.413-8.533,8.533-8.533 h119.467c5.12,0,8.533,3.413,8.533,8.533v51.2C301.438,72.387,298.025,75.8,292.905,75.8"/> <path style="fill:#ffffff;" d="M301.438,58.733v8.533c0,5.12-3.413,8.533-8.533,8.533H173.438c-5.12,0-8.533-3.413-8.533-8.533 v-8.533H71.038c-5.12,0-8.533,3.413-8.533,8.533V459.8c0,5.12,3.413,8.533,8.533,8.533h324.267c5.12,0,8.533-3.413,8.533-8.533 V67.267c0-5.12-3.413-8.533-8.533-8.533H301.438z"/> <g> <path style="fill:#F97316 ;" d="M190.505,246.467c0,14.507-11.093,25.6-25.6,25.6s-25.6-11.093-25.6-25.6 c0-14.507,11.093-25.6,25.6-25.6S190.505,231.96,190.505,246.467"/> <path style="fill:#F97316 ;" d="M327.038,246.467c0,14.507-11.093,25.6-25.6,25.6c-14.507,0-25.6-11.093-25.6-25.6 c0-14.507,11.093-25.6,25.6-25.6C315.945,220.867,327.038,231.96,327.038,246.467"/> <path style="fill:#F97316 ;" d="M347.518,186.733H118.825c-7.68,0-13.653,5.973-13.653,13.653v33.28 c0,7.68,5.973,13.653,13.653,13.653h20.48c0-14.507,11.093-25.6,25.6-25.6s25.6,11.093,25.6,25.6h85.333 c0-14.507,11.093-25.6,25.6-25.6c14.507,0,25.6,11.093,25.6,25.6h20.48c7.68,0,13.653-5.973,13.653-13.653v-33.28 C361.172,192.707,355.198,186.733,347.518,186.733"/> </g> <path style="fill:#63D3FD;" d="M327.038,186.733H139.305l36.693-51.2c3.413-5.12,9.387-8.533,16.213-8.533h81.92 c5.973,0,11.947,3.413,16.213,8.533L327.038,186.733z"/> <path style="fill:#DD3859;" d="M480.638,376.173c-2.56-29.013-23.893-52.907-53.76-52.907c-3.413,0-6.827,0.853-9.387,0.853 c-15.36-4.267,35.84,35.84,37.547,51.2c0,0,0.853,6.827-1.707,19.627c-3.413,17.067-12.8,33.28-24.747,45.227l-50.347,61.44l0,0 c0.853,0,0.853,0,1.707,0l70.827-60.587c13.653-11.947,23.893-27.307,28.16-45.227C481.492,383,480.638,376.173,480.638,376.173"/> <path style="fill:#E4667F;" d="M378.238,359.96c6.827-18.773,10.24-35.84,29.867-35.84c25.6,0,44.373,23.893,46.933,52.907 c0,0,0.853,6.827-1.707,19.627c-3.413,17.067-12.8,33.28-24.747,45.227l-50.347,60.587c-0.853,0.853-0.853,0.853-1.707,0 l-74.24-60.587c-11.947-11.947-21.333-27.307-24.747-45.227c-2.56-12.8-1.707-19.627-1.707-19.627 c2.56-29.013,21.333-52.907,46.933-52.907C342.398,324.12,371.412,341.187,378.238,359.96"/> <path d="M378.238,510.147c-2.56,0-4.267-0.853-6.827-2.56L300.585,447c-15.36-13.653-26.453-30.72-30.72-49.493 c-3.413-12.8-2.56-20.48-1.707-23.04c3.413-34.987,29.867-60.587,62.293-60.587c20.48,0,37.547,11.947,48.64,27.307 c11.093-15.36,28.16-27.307,48.64-27.307c32.427,0,58.88,25.6,62.293,60.587c0,2.56,0.853,10.24-1.707,23.04 c-5.973,19.627-16.213,36.693-32.427,49.493l-70.827,60.587C383.358,509.293,380.798,510.147,378.238,510.147z M285.225,377.88 c0,0-0.853,5.973,1.707,16.213c3.413,15.36,12.8,29.013,25.6,40.107l66.56,57.173l66.56-57.173 c12.8-11.093,21.333-24.747,25.6-40.107c2.56-10.24,1.707-16.213,1.707-16.213c-2.56-23.04-18.773-46.08-45.227-46.08 c-18.773,0-34.133,15.36-40.96,30.72c-1.707,3.413-4.267,5.12-7.68,5.12l0,0c-3.413,0-6.827-1.707-7.68-5.12 c-6.827-15.36-22.187-30.72-40.96-30.72c-26.453,0-42.667,23.04-45.227,45.227C285.225,377.027,285.225,377.027,285.225,377.88 L285.225,377.88z"/> <path d="M292.905,84.333H173.438c-9.387,0-17.067-7.68-17.067-17.067v-51.2C156.372,6.68,164.052-1,173.438-1h119.467 c9.387,0,17.067,7.68,17.067,17.067v51.2C309.972,76.653,302.292,84.333,292.905,84.333z M292.905,67.267V75.8V67.267 L292.905,67.267z M173.438,16.067v51.2h119.467v-51.2H173.438z"/> <path d="M327.038,195.267H139.305c-3.413,0-5.973-1.707-7.68-4.267c-1.707-2.56-0.853-5.973,0.853-8.533l36.693-51.2 c5.12-7.68,13.653-11.947,23.04-11.947h81.92c9.387,0,17.92,4.267,23.04,11.947l36.693,51.2c1.707,2.56,1.707,5.973,0.853,8.533 C333.012,193.56,330.452,195.267,327.038,195.267z M155.518,178.2h154.453l-27.307-38.4c-1.707-2.56-5.12-4.267-9.387-4.267h-81.92 c-3.413,0-6.827,1.707-9.387,4.267L155.518,178.2z"/> <path d="M164.905,280.6c-18.773,0-34.133-15.36-34.133-34.133s15.36-34.133,34.133-34.133s34.133,15.36,34.133,34.133 S183.678,280.6,164.905,280.6z M164.905,229.4c-9.387,0-17.067,7.68-17.067,17.067s7.68,17.067,17.067,17.067 c9.387,0,17.067-7.68,17.067-17.067S174.292,229.4,164.905,229.4z"/> <path d="M301.438,280.6c-18.773,0-34.133-15.36-34.133-34.133s15.36-34.133,34.133-34.133s34.133,15.36,34.133,34.133 S320.212,280.6,301.438,280.6z M301.438,229.4c-9.387,0-17.067,7.68-17.067,17.067s7.68,17.067,17.067,17.067 c9.387,0,17.067-7.68,17.067-17.067S310.825,229.4,301.438,229.4z"/> <path d="M347.518,255h-20.48c-5.12,0-8.533-3.413-8.533-8.533c0-9.387-7.68-17.067-17.067-17.067s-17.067,7.68-17.067,17.067 c0,5.12-3.413,8.533-8.533,8.533h-85.333c-5.12,0-8.533-3.413-8.533-8.533c0-9.387-7.68-17.067-17.067-17.067 c-9.387,0-17.067,7.68-17.067,17.067c0,5.12-3.413,8.533-8.533,8.533h-20.48c-12.8,0-22.187-9.387-22.187-22.187v-33.28 c0-11.947,9.387-22.187,22.187-22.187h229.547c11.947,0,22.187,9.387,22.187,22.187v33.28C369.705,245.613,360.318,255,347.518,255 z M334.718,237.933h13.653c2.56,0,5.12-2.56,5.12-5.12v-33.28c0-2.56-2.56-5.12-5.12-5.12H118.825c-2.56,0-5.12,2.56-5.12,5.12 v33.28c0,2.56,2.56,5.12,5.12,5.12h13.653c3.413-14.507,17.067-25.6,33.28-25.6s29.013,11.093,33.28,25.6h70.827 c3.413-14.507,17.067-25.6,33.28-25.6S330.452,223.427,334.718,237.933z"/> <path d="M233.172,340.333h-128c-5.12,0-8.533-3.413-8.533-8.533s3.413-8.533,8.533-8.533h128c5.12,0,8.533,3.413,8.533,8.533 S238.292,340.333,233.172,340.333z"/> <path d="M233.172,383h-128c-5.12,0-8.533-3.413-8.533-8.533c0-5.12,3.413-8.533,8.533-8.533h128c5.12,0,8.533,3.413,8.533,8.533 C241.705,379.587,238.292,383,233.172,383z"/> <path d="M233.172,425.667h-128c-5.12,0-8.533-3.413-8.533-8.533s3.413-8.533,8.533-8.533h128c5.12,0,8.533,3.413,8.533,8.533 S238.292,425.667,233.172,425.667z"/> <path d="M233.172,195.267c-5.12,0-8.533-3.413-8.533-8.533V127c0-5.12,3.413-8.533,8.533-8.533s8.533,3.413,8.533,8.533v59.733 C241.705,191.853,238.292,195.267,233.172,195.267z"/> <path d="M378.238,511h-332.8c-14.507,0-25.6-11.093-25.6-25.6V41.667c0-14.507,11.093-25.6,25.6-25.6h110.933 C156.372,6.68,164.052-1,173.438-1h119.467c9.387,0,17.067,7.68,17.067,17.067h110.933c14.507,0,25.6,11.093,25.6,25.6V324.12 c0,2.56-0.853,5.12-3.413,6.827c-1.707,1.707-4.267,2.56-6.827,1.707c-3.413-0.853-5.973-0.853-9.387-0.853 c-18.773,0-34.133,15.36-40.96,30.72c-1.707,3.413-4.267,5.12-7.68,5.12c-3.413,0-6.827-1.707-7.68-5.12 c-6.827-15.36-22.187-30.72-40.96-30.72c-26.453,0-42.667,23.04-45.227,45.227v0.853l0,0c0,0-0.853,5.973,1.707,16.213 c3.413,15.36,12.8,29.013,25.6,40.107l70.827,60.587l0.853,0.853l0.853,0.853c1.707,2.56,2.56,5.973,0.853,9.387 C384.212,509.293,381.652,511,378.238,511z M45.438,33.133c-5.12,0-8.533,3.413-8.533,8.533V485.4c0,5.12,3.413,8.533,8.533,8.533 h309.76L300.585,447c-15.36-13.653-26.453-30.72-30.72-49.493c-3.413-12.8-2.56-20.48-1.707-23.04 c3.413-34.987,29.867-60.587,62.293-60.587c20.48,0,37.547,11.947,48.64,27.307c11.093-15.36,29.867-28.16,51.2-27.307V41.667 c0-5.12-3.413-8.533-8.533-8.533h-120.32c-5.12,0-8.533-3.413-8.533-8.533v-8.533H173.438V24.6c0,5.12-3.413,8.533-8.533,8.533 H45.438z"/> <path d="M338.985,476.867H71.038c-9.387,0-17.067-7.68-17.067-17.067V67.267c0-9.387,7.68-17.067,17.067-17.067h93.867 c5.12,0,8.533,3.413,8.533,8.533v8.533h119.467v-8.533c0-5.12,3.413-8.533,8.533-8.533h93.867c9.387,0,17.067,7.68,17.067,17.067 v262.827c0,3.413-1.707,5.973-4.267,7.68c-9.387,5.12-17.067,14.507-22.187,25.6c-1.707,3.413-4.267,5.12-7.68,5.12 c-3.413,0-6.827-1.707-7.68-5.12c-6.827-15.36-22.187-30.72-40.96-30.72c-26.453,0-42.667,23.04-45.227,45.227v0.853l0,0 c0,0-0.853,5.973,1.707,16.213c3.413,15.36,12.8,29.013,25.6,40.107l32.427,27.307c2.56,2.56,3.413,5.973,2.56,9.387 C345.812,474.307,342.398,476.867,338.985,476.867z M71.038,67.267V459.8h244.907L301.438,447l0,0 c-15.36-13.653-26.453-30.72-30.72-49.493c-3.413-12.8-2.56-20.48-1.707-23.04c3.413-34.987,29.867-60.587,62.293-60.587 c20.48,0,37.547,11.947,48.64,27.307c5.12-6.827,10.24-11.947,17.067-17.067V67.267h-87.04c0,9.387-7.68,17.067-17.067,17.067 H173.438c-9.387,0-17.067-7.68-17.067-17.067H71.038z"/> </g> </g>
</svg>